<svg width="64" height="64" viewBox="0 0 64 64" fill="none" xmlns="http://www.w3.org/2000/svg">
<g clip-path="url(#clip0_132_30)">
<mask id="mask0_132_30" style="mask-type:luminance" maskUnits="userSpaceOnUse" x="0" y="0" width="64" height="64">
<path d="M64 0H0V64H64V0Z" fill="white"/>
</mask>
<g mask="url(#mask0_132_30)">
<path d="M64 0H0V64H64V0Z" fill="#F8F8F6"/>
<path d="M33.2203 58.8875C33.2203 58.9294 33.1992 58.9717 33.1572 59.0136C33.1153 59.0554 33.0522 59.0766 32.9682 59.0766H20.8692C20.7852 59.0766 20.7222 59.0554 20.6802 59.0136C20.6382 58.9717 20.6172 58.9294 20.6172 58.8875C20.6172 58.8245 20.7222 58.7512 20.9323 58.667L23.4529 57.9738C24.1671 57.7429 24.7552 57.3963 25.2173 56.9341C25.6794 56.4718 25.9105 55.7998 25.9105 54.9176V21.5824C25.9105 21.2463 25.8895 21.0048 25.8475 20.8578C25.8055 20.7107 25.6584 20.4586 25.4064 20.1016L22.5392 15.6275C22.4761 15.4804 22.4131 15.3649 22.3501 15.2809C22.2871 15.1759 22.2556 15.1023 22.2556 15.0603C22.2556 15.0183 22.2661 14.9973 22.2871 14.9973C22.3291 14.9763 22.3921 14.9658 22.4761 14.9658H29.5024C29.6494 14.9658 29.7649 15.0288 29.8489 15.1549C29.9539 15.2809 30.101 15.491 30.29 15.785L54.614 53.7203L54.2359 54.3819V19.1248C54.2359 18.2216 54.005 17.539 53.5427 17.0768C53.0804 16.6147 52.4715 16.2787 51.7153 16.0686L47.7768 15.3754C47.5878 15.2914 47.4932 15.2179 47.4932 15.1549C47.4932 15.0919 47.5143 15.0499 47.5563 15.0288C47.5983 14.9868 47.6613 14.9658 47.7453 14.9658H59.8128C59.8969 14.9658 59.96 14.9868 60.0018 15.0288C60.0436 15.0499 60.0648 15.0919 60.0648 15.1549C60.0648 15.2179 59.96 15.2914 59.7497 15.3754L57.2606 16.0686C56.5463 16.2787 55.9585 16.6147 55.4962 17.0768C55.0339 17.539 54.803 18.2216 54.803 19.1248V53.4367C54.803 53.6888 54.8345 53.9093 54.8976 54.0984C54.9817 54.2874 55.0763 54.4661 55.1811 54.634L57.3552 57.9423C57.523 58.2362 57.6491 58.4568 57.7332 58.604C57.8174 58.7512 57.8593 58.856 57.8593 58.9191C57.8593 58.9609 57.8278 59.0032 57.7648 59.0451C57.7229 59.0662 57.6387 59.0766 57.5127 59.0766H50.8646C50.5495 59.0766 50.392 58.9294 50.392 58.6355C50.392 58.5306 50.3604 58.4046 50.2974 58.2574C50.2556 58.1102 50.1926 57.9738 50.1084 57.8478L25.4379 19.818H26.4461V54.9176C26.4461 55.7998 26.6771 56.4826 27.1393 56.9656C27.6014 57.4278 28.1895 57.7636 28.9037 57.9738L32.9052 58.667C33.1153 58.7512 33.2203 58.8245 33.2203 58.8875Z" fill="#1F1F1D"/>
<path d="M17.0502 50.353C15.3278 50.353 13.8995 50.1428 12.7652 49.7229C11.6519 49.3029 10.7592 48.8196 10.087 48.2735C9.41488 47.7274 8.90022 47.2443 8.54315 46.8242C8.20705 46.4041 7.95499 46.194 7.78696 46.194C7.63991 46.194 7.36688 46.3726 6.96776 46.7297C6.58967 47.0867 6.18007 47.4963 5.73896 47.9585C5.29786 48.4206 4.88826 48.8302 4.51016 49.1873C4.15308 49.5235 3.92202 49.6914 3.81699 49.6914C3.73297 49.6914 3.66996 49.6599 3.62795 49.5969C3.58594 49.5127 3.57543 49.4078 3.59644 49.2818L5.8965 36.6787C5.9385 36.5316 5.97 36.4266 5.99103 36.3636C6.03302 36.3006 6.08555 36.2691 6.14856 36.2691C6.21158 36.2691 6.25357 36.3006 6.27459 36.3636C6.31659 36.4266 6.33761 36.5212 6.33761 36.6472L7.09379 40.9953C7.5349 43.915 8.53266 46.089 10.087 47.5173C11.6624 48.9247 13.5739 49.6284 15.8214 49.6284C17.4808 49.6284 18.9512 49.2818 20.2325 48.5886C21.5138 47.8744 22.5431 46.9187 23.3203 45.7214C24.1184 44.5241 24.5911 43.1798 24.7381 41.6884C24.9902 39.7769 24.6751 37.9705 23.7929 36.2691C22.9317 34.5677 21.2827 32.7717 18.8462 30.8813C15.9685 28.6547 13.973 26.5858 12.8597 24.6743C11.7464 22.7418 11.2738 20.5993 11.4419 18.2467C11.5889 15.9781 12.3346 13.8356 13.6789 11.8191C15.0442 9.78162 16.9137 8.12224 19.2873 6.84091C21.6608 5.55959 24.423 4.91895 27.5738 4.91895C30.2204 4.91895 32.384 5.36005 34.0644 6.24227C35.7658 7.10346 37.0051 8.23774 37.7823 9.6451C38.5805 11.0314 38.9376 12.5228 38.8535 14.1192C38.8116 15.1905 38.5595 16.0201 38.0974 16.6083C37.6563 17.1965 37.0786 17.4905 36.3644 17.4905C35.8813 17.4905 35.4822 17.3015 35.1671 16.9234C34.8731 16.5243 34.6525 15.9256 34.5055 15.1274L33.9699 12.1972C33.5288 9.78162 32.7306 8.04869 31.5753 6.99845C30.441 5.92719 28.9916 5.39156 27.2272 5.39156C25.2948 5.39156 23.5828 5.82218 22.0915 6.68338C20.6211 7.54457 19.4448 8.68938 18.5626 10.1177C17.7014 11.5251 17.2183 13.069 17.1132 14.7493C16.9452 16.8708 17.3443 18.8034 18.3105 20.5468C19.2768 22.2692 21.0097 24.1701 23.5093 26.2497C25.5258 27.93 27.0697 29.4949 28.1409 30.9443C29.2332 32.3937 29.9579 33.7905 30.315 35.1348C30.6931 36.4792 30.7876 37.855 30.5985 39.2623C30.3885 41.5519 29.6428 43.5369 28.3615 45.2173C27.0802 46.8767 25.4523 48.1475 23.4778 49.0297C21.5033 49.9119 19.3608 50.353 17.0502 50.353Z" fill="#1F1F1D"/>
</g>
</g>
<defs>
<clipPath id="clip0_132_30">
<rect width="64" height="64" fill="white"/>
</clipPath>
</defs>
</svg>
